<svg xmlns="http://www.w3.org/2000/svg" xmlns:xlink="http://www.w3.org/1999/xlink" version="1.1" id="Your_Icon" x="0px" y="0px" width="100px" height="100px" viewBox="0 0 100 100" enable-background="new 0 0 100 100" xml:space="preserve">
<g>
	<path fill="#000000" d="M52.921,51.022c0,3.057-2.47,5.531-5.523,5.531c-3.055,0-5.528-2.475-5.528-5.531   c0-3.05,2.473-5.521,5.528-5.521C50.451,45.502,52.921,47.972,52.921,51.022z"/>
	<path fill="#000000" d="M34.766,73.678h47.865l0,0l0,0V59.164L76.3,47.675l-8.603,18.581l-5.071-7.806   c0,0-7.098,6.633-14.572,11.846l-5.688-2.617L34.766,73.678z"/>
	<path fill="#000000" d="M84.362,29.596v-5.738v-5.741v-5.74h-68.88H4v11.481v28.703v5.738v5.737h17.221V87h74.624V29.596H84.362z    M21.221,55.179h-8.358V21.239H75.5v8.357H21.221V55.179z M86.98,78.137H30.083V38.459H86.98V78.137z"/>
</g>
</svg>